<mxfile host="app.diagrams.net" modified="2023-12-02T07:17:20.274Z" agent="Mozilla/5.0 (Windows NT 10.0; Win64; x64) AppleWebKit/537.36 (KHTML, like Gecko) Chrome/119.0.0.0 Safari/537.36" etag="mURKvqdjHY_BgHQflg0J" version="22.1.5" type="github">
  <diagram name="第 1 页" id="dtwlA8CM1EAMrB4R6o4k">
    <mxGraphModel dx="1434" dy="750" grid="1" gridSize="10" guides="1" tooltips="1" connect="1" arrows="1" fold="1" page="1" pageScale="1" pageWidth="827" pageHeight="1169" math="1" shadow="0">
      <root>
        <mxCell id="0" />
        <mxCell id="1" parent="0" />
        <mxCell id="FHqDacJqW2dHZCzbGffp-4" style="edgeStyle=orthogonalEdgeStyle;rounded=0;orthogonalLoop=1;jettySize=auto;html=1;exitX=0.5;exitY=1;exitDx=0;exitDy=0;strokeColor=none;" edge="1" parent="1" source="FHqDacJqW2dHZCzbGffp-13">
          <mxGeometry relative="1" as="geometry">
            <mxPoint x="400" y="440" as="targetPoint" />
            <Array as="points">
              <mxPoint x="230" y="350" />
              <mxPoint x="401" y="350" />
            </Array>
          </mxGeometry>
        </mxCell>
        <mxCell id="8rZRUr9rOCkmoA-Tfgv--1" value="" style="ellipse;whiteSpace=wrap;html=1;aspect=fixed;" parent="1" vertex="1">
          <mxGeometry x="210" y="230" width="40" height="40" as="geometry" />
        </mxCell>
        <mxCell id="8rZRUr9rOCkmoA-Tfgv--2" value="" style="ellipse;whiteSpace=wrap;html=1;aspect=fixed;" parent="1" vertex="1">
          <mxGeometry x="260" y="230" width="40" height="40" as="geometry" />
        </mxCell>
        <mxCell id="8rZRUr9rOCkmoA-Tfgv--3" value="" style="ellipse;whiteSpace=wrap;html=1;aspect=fixed;" parent="1" vertex="1">
          <mxGeometry x="310" y="230" width="40" height="40" as="geometry" />
        </mxCell>
        <mxCell id="8rZRUr9rOCkmoA-Tfgv--6" value="" style="ellipse;whiteSpace=wrap;html=1;aspect=fixed;" parent="1" vertex="1">
          <mxGeometry x="440" y="230" width="40" height="40" as="geometry" />
        </mxCell>
        <mxCell id="8rZRUr9rOCkmoA-Tfgv--7" value="" style="ellipse;whiteSpace=wrap;html=1;aspect=fixed;" parent="1" vertex="1">
          <mxGeometry x="490" y="230" width="40" height="40" as="geometry" />
        </mxCell>
        <mxCell id="8rZRUr9rOCkmoA-Tfgv--8" value="" style="ellipse;whiteSpace=wrap;html=1;aspect=fixed;" parent="1" vertex="1">
          <mxGeometry x="540" y="230" width="40" height="40" as="geometry" />
        </mxCell>
        <mxCell id="8rZRUr9rOCkmoA-Tfgv--12" value="" style="shape=curlyBracket;whiteSpace=wrap;html=1;rounded=1;labelPosition=left;verticalLabelPosition=middle;align=right;verticalAlign=middle;size=0.5;rotation=90;" parent="1" vertex="1">
          <mxGeometry x="265" y="130" width="30" height="140" as="geometry" />
        </mxCell>
        <mxCell id="8rZRUr9rOCkmoA-Tfgv--14" value="" style="shape=curlyBracket;whiteSpace=wrap;html=1;rounded=1;labelPosition=left;verticalLabelPosition=middle;align=right;verticalAlign=middle;size=0.5;rotation=90;" parent="1" vertex="1">
          <mxGeometry x="492.5" y="132.5" width="30" height="135" as="geometry" />
        </mxCell>
        <mxCell id="8rZRUr9rOCkmoA-Tfgv--16" value="$$\mathbf{W}\vec{z}_{i}$$" style="text;html=1;align=center;verticalAlign=middle;resizable=0;points=[];autosize=1;strokeColor=none;fillColor=none;fontSize=14;" parent="1" vertex="1">
          <mxGeometry x="185" y="148" width="190" height="30" as="geometry" />
        </mxCell>
        <mxCell id="FHqDacJqW2dHZCzbGffp-1" value="$$\mathbf{W}\vec{z}_{j}$$" style="text;html=1;align=center;verticalAlign=middle;resizable=0;points=[];autosize=1;strokeColor=none;fillColor=none;fontSize=14;" vertex="1" parent="1">
          <mxGeometry x="414" y="148" width="190" height="30" as="geometry" />
        </mxCell>
        <mxCell id="FHqDacJqW2dHZCzbGffp-7" value="" style="endArrow=classic;html=1;rounded=0;entryX=0.1;entryY=0.2;entryDx=0;entryDy=0;entryPerimeter=0;" edge="1" parent="1" target="FHqDacJqW2dHZCzbGffp-13">
          <mxGeometry width="50" height="50" relative="1" as="geometry">
            <mxPoint x="230" y="270" as="sourcePoint" />
            <mxPoint x="400" y="440" as="targetPoint" />
          </mxGeometry>
        </mxCell>
        <mxCell id="FHqDacJqW2dHZCzbGffp-8" value="" style="endArrow=classic;html=1;rounded=0;exitX=0.5;exitY=1;exitDx=0;exitDy=0;entryX=0.28;entryY=0.06;entryDx=0;entryDy=0;entryPerimeter=0;" edge="1" parent="1" source="8rZRUr9rOCkmoA-Tfgv--2" target="FHqDacJqW2dHZCzbGffp-13">
          <mxGeometry width="50" height="50" relative="1" as="geometry">
            <mxPoint x="240" y="280" as="sourcePoint" />
            <mxPoint x="380" y="440" as="targetPoint" />
          </mxGeometry>
        </mxCell>
        <mxCell id="FHqDacJqW2dHZCzbGffp-9" value="" style="endArrow=classic;html=1;rounded=0;exitX=0.5;exitY=1;exitDx=0;exitDy=0;entryX=0.5;entryY=0;entryDx=0;entryDy=0;" edge="1" parent="1" source="8rZRUr9rOCkmoA-Tfgv--3" target="FHqDacJqW2dHZCzbGffp-13">
          <mxGeometry width="50" height="50" relative="1" as="geometry">
            <mxPoint x="290" y="280" as="sourcePoint" />
            <mxPoint x="400" y="440" as="targetPoint" />
          </mxGeometry>
        </mxCell>
        <mxCell id="FHqDacJqW2dHZCzbGffp-10" value="" style="endArrow=classic;html=1;rounded=0;exitX=0.5;exitY=1;exitDx=0;exitDy=0;entryX=1;entryY=0;entryDx=0;entryDy=0;" edge="1" parent="1" source="8rZRUr9rOCkmoA-Tfgv--8" target="FHqDacJqW2dHZCzbGffp-13">
          <mxGeometry width="50" height="50" relative="1" as="geometry">
            <mxPoint x="560" y="280" as="sourcePoint" />
            <mxPoint x="400" y="440" as="targetPoint" />
          </mxGeometry>
        </mxCell>
        <mxCell id="FHqDacJqW2dHZCzbGffp-11" value="" style="endArrow=classic;html=1;rounded=0;exitX=0.5;exitY=1;exitDx=0;exitDy=0;entryX=0.68;entryY=0.02;entryDx=0;entryDy=0;entryPerimeter=0;" edge="1" parent="1" source="8rZRUr9rOCkmoA-Tfgv--7" target="FHqDacJqW2dHZCzbGffp-13">
          <mxGeometry width="50" height="50" relative="1" as="geometry">
            <mxPoint x="570" y="280" as="sourcePoint" />
            <mxPoint x="400" y="440" as="targetPoint" />
          </mxGeometry>
        </mxCell>
        <mxCell id="FHqDacJqW2dHZCzbGffp-12" value="" style="endArrow=classic;html=1;rounded=0;exitX=0.5;exitY=1;exitDx=0;exitDy=0;entryX=0.5;entryY=0;entryDx=0;entryDy=0;" edge="1" parent="1" source="8rZRUr9rOCkmoA-Tfgv--6" target="FHqDacJqW2dHZCzbGffp-13">
          <mxGeometry width="50" height="50" relative="1" as="geometry">
            <mxPoint x="580" y="290" as="sourcePoint" />
            <mxPoint x="400" y="440" as="targetPoint" />
          </mxGeometry>
        </mxCell>
        <mxCell id="FHqDacJqW2dHZCzbGffp-14" value="" style="edgeStyle=orthogonalEdgeStyle;rounded=0;orthogonalLoop=1;jettySize=auto;html=1;exitX=0.5;exitY=1;exitDx=0;exitDy=0;strokeColor=none;" edge="1" parent="1" source="8rZRUr9rOCkmoA-Tfgv--1" target="FHqDacJqW2dHZCzbGffp-13">
          <mxGeometry relative="1" as="geometry">
            <mxPoint x="400" y="440" as="targetPoint" />
            <mxPoint x="230" y="270" as="sourcePoint" />
            <Array as="points" />
          </mxGeometry>
        </mxCell>
        <mxCell id="FHqDacJqW2dHZCzbGffp-13" value="" style="ellipse;whiteSpace=wrap;html=1;aspect=fixed;" vertex="1" parent="1">
          <mxGeometry x="375" y="370" width="50" height="50" as="geometry" />
        </mxCell>
        <mxCell id="FHqDacJqW2dHZCzbGffp-16" value="" style="html=1;shadow=0;dashed=0;align=center;verticalAlign=middle;shape=mxgraph.arrows2.arrow;dy=0.6;dx=40;direction=south;notch=0;" vertex="1" parent="1">
          <mxGeometry x="381.25" y="430" width="37.5" height="110" as="geometry" />
        </mxCell>
        <mxCell id="FHqDacJqW2dHZCzbGffp-17" value="&lt;font style=&quot;font-size: 16px;&quot;&gt;sofymax&lt;/font&gt;" style="text;html=1;align=center;verticalAlign=middle;resizable=0;points=[];autosize=1;strokeColor=none;fillColor=none;rotation=0;" vertex="1" parent="1">
          <mxGeometry x="400" y="450" width="80" height="30" as="geometry" />
        </mxCell>
        <mxCell id="FHqDacJqW2dHZCzbGffp-18" value="$$a_{ij}$$" style="ellipse;whiteSpace=wrap;html=1;aspect=fixed;fontSize=15;" vertex="1" parent="1">
          <mxGeometry x="375" y="550" width="50" height="50" as="geometry" />
        </mxCell>
      </root>
    </mxGraphModel>
  </diagram>
</mxfile>
